G75*
%MOIN*%
%OFA0B0*%
%FSLAX25Y25*%
%IPPOS*%
%LPD*%
%AMOC8*
5,1,8,0,0,1.08239X$1,22.5*
%
%ADD10C,0.06012*%
%ADD11OC8,0.07900*%
%ADD12C,0.05300*%
%ADD13C,0.03256*%
%ADD14R,0.06406X0.05618*%
%ADD15R,0.06012X0.04437*%
%ADD16C,0.08000*%
%ADD17OC8,0.08000*%
%ADD18R,0.05000X0.05000*%
%ADD19C,0.07900*%
%ADD20C,0.06500*%
%ADD21C,0.05300*%
%ADD22C,0.03400*%
D10*
X0192494Y0013306D03*
X0203994Y0013306D03*
X0011994Y0183306D03*
X0011994Y0194306D03*
D11*
X0081594Y0076406D03*
X0091594Y0076406D03*
X0091594Y0066406D03*
X0081594Y0066406D03*
X0081594Y0056406D03*
X0091594Y0056406D03*
D12*
X0191594Y0062806D02*
X0196394Y0062806D01*
X0196394Y0072806D02*
X0191594Y0072806D01*
X0191594Y0082806D02*
X0196394Y0082806D01*
X0196394Y0092806D02*
X0191594Y0092806D01*
X0191594Y0102806D02*
X0196394Y0102806D01*
X0196394Y0112806D02*
X0191594Y0112806D01*
X0191594Y0122806D02*
X0196394Y0122806D01*
X0196394Y0132806D02*
X0191594Y0132806D01*
X0191594Y0142806D02*
X0196394Y0142806D01*
X0196394Y0152806D02*
X0191594Y0152806D01*
X0191594Y0162806D02*
X0196394Y0162806D01*
X0196394Y0172806D02*
X0191594Y0172806D01*
X0191594Y0182806D02*
X0196394Y0182806D01*
X0196394Y0192806D02*
X0191594Y0192806D01*
X0251594Y0192806D02*
X0256394Y0192806D01*
X0256394Y0182806D02*
X0251594Y0182806D01*
X0251594Y0172806D02*
X0256394Y0172806D01*
X0256394Y0162806D02*
X0251594Y0162806D01*
X0251594Y0152806D02*
X0256394Y0152806D01*
X0256394Y0142806D02*
X0251594Y0142806D01*
X0251594Y0132806D02*
X0256394Y0132806D01*
X0256394Y0122806D02*
X0251594Y0122806D01*
X0251594Y0112806D02*
X0256394Y0112806D01*
X0256394Y0102806D02*
X0251594Y0102806D01*
X0251594Y0092806D02*
X0256394Y0092806D01*
X0256394Y0082806D02*
X0251594Y0082806D01*
X0251594Y0072806D02*
X0256394Y0072806D01*
X0256394Y0062806D02*
X0251594Y0062806D01*
D13*
X0175794Y0088325D02*
X0175794Y0093049D01*
X0170794Y0093049D02*
X0170794Y0088325D01*
X0165794Y0088325D02*
X0165794Y0093049D01*
X0160794Y0093049D02*
X0160794Y0088325D01*
X0155794Y0088325D02*
X0155794Y0093049D01*
X0150794Y0093049D02*
X0150794Y0088325D01*
X0145794Y0088325D02*
X0145794Y0093049D01*
X0140794Y0093049D02*
X0140794Y0088325D01*
X0135794Y0088325D02*
X0135794Y0093049D01*
X0130794Y0093049D02*
X0130794Y0088325D01*
X0125794Y0088325D02*
X0125794Y0093049D01*
X0120794Y0093049D02*
X0120794Y0088325D01*
X0115794Y0088325D02*
X0115794Y0093049D01*
X0110794Y0093049D02*
X0110794Y0088325D01*
X0110794Y0130963D02*
X0110794Y0135687D01*
X0115794Y0135687D02*
X0115794Y0130963D01*
X0120794Y0130963D02*
X0120794Y0135687D01*
X0125794Y0135687D02*
X0125794Y0130963D01*
X0130794Y0130963D02*
X0130794Y0135687D01*
X0135794Y0135687D02*
X0135794Y0130963D01*
X0140794Y0130963D02*
X0140794Y0135687D01*
X0145794Y0135687D02*
X0145794Y0130963D01*
X0150794Y0130963D02*
X0150794Y0135687D01*
X0155794Y0135687D02*
X0155794Y0130963D01*
X0160794Y0130963D02*
X0160794Y0135687D01*
X0165794Y0135687D02*
X0165794Y0130963D01*
X0170794Y0130963D02*
X0170794Y0135687D01*
X0175794Y0135687D02*
X0175794Y0130963D01*
D14*
X0064994Y0138066D03*
X0064994Y0145546D03*
X0045994Y0144546D03*
X0045994Y0137066D03*
X0027994Y0137066D03*
X0027994Y0144546D03*
D15*
X0036663Y0153066D03*
X0036663Y0160546D03*
X0045325Y0156806D03*
X0055663Y0154066D03*
X0064325Y0157806D03*
X0055663Y0161546D03*
D16*
X0046594Y0061206D03*
X0014194Y0060106D03*
D17*
X0034194Y0060106D03*
X0066594Y0061206D03*
D18*
X0063594Y0123506D03*
X0050094Y0123506D03*
D19*
X0104994Y0143806D03*
X0104994Y0153806D03*
X0104994Y0163806D03*
X0104994Y0173806D03*
X0104994Y0183806D03*
X0104994Y0193806D03*
D20*
X0025994Y0194106D02*
X0019994Y0194106D01*
X0019994Y0183106D02*
X0025994Y0183106D01*
X0192494Y0028806D02*
X0192494Y0022806D01*
X0203494Y0022806D02*
X0203494Y0028806D01*
D21*
X0048294Y0084206D03*
X0029294Y0084206D03*
D22*
X0047994Y0042606D03*
X0048794Y0049006D03*
X0044794Y0050606D03*
X0039994Y0055406D03*
X0052794Y0062606D03*
X0042394Y0070606D03*
X0031994Y0071406D03*
X0019194Y0053806D03*
X0019194Y0049806D03*
X0011194Y0051406D03*
X0059994Y0093006D03*
X0071194Y0085006D03*
X0074394Y0080206D03*
X0065594Y0067406D03*
X0075194Y0055406D03*
X0089594Y0040206D03*
X0095994Y0044206D03*
X0103194Y0040206D03*
X0110394Y0040206D03*
X0115194Y0047406D03*
X0123194Y0047406D03*
X0136794Y0050606D03*
X0143194Y0049006D03*
X0147994Y0051406D03*
X0144794Y0054606D03*
X0154394Y0062606D03*
X0154394Y0066606D03*
X0157594Y0073006D03*
X0161594Y0069806D03*
X0169594Y0073806D03*
X0175994Y0079406D03*
X0162394Y0078606D03*
X0151994Y0081006D03*
X0147994Y0077006D03*
X0150394Y0073806D03*
X0140794Y0073806D03*
X0140794Y0081006D03*
X0145594Y0083406D03*
X0135994Y0084206D03*
X0123194Y0082606D03*
X0122394Y0077806D03*
X0120794Y0073806D03*
X0115194Y0076206D03*
X0103994Y0068206D03*
X0094394Y0082606D03*
X0101594Y0085806D03*
X0099194Y0096206D03*
X0101594Y0109806D03*
X0095994Y0114606D03*
X0093594Y0111406D03*
X0095994Y0121806D03*
X0093594Y0127406D03*
X0103194Y0134606D03*
X0106394Y0131406D03*
X0115994Y0125806D03*
X0123194Y0119406D03*
X0123194Y0111406D03*
X0119194Y0109806D03*
X0122394Y0106606D03*
X0135994Y0107406D03*
X0136794Y0113006D03*
X0143994Y0111406D03*
X0147994Y0111406D03*
X0152794Y0108206D03*
X0162394Y0100206D03*
X0162394Y0117006D03*
X0162394Y0127406D03*
X0174394Y0127406D03*
X0177594Y0117806D03*
X0196794Y0117806D03*
X0203194Y0109806D03*
X0199994Y0106606D03*
X0201594Y0101806D03*
X0200794Y0095406D03*
X0212794Y0098606D03*
X0211194Y0106606D03*
X0211194Y0116206D03*
X0203194Y0131406D03*
X0183994Y0143406D03*
X0175994Y0146606D03*
X0162394Y0150606D03*
X0151994Y0153806D03*
X0143994Y0157006D03*
X0142394Y0147406D03*
X0136794Y0141806D03*
X0135994Y0145806D03*
X0122394Y0150606D03*
X0118394Y0150606D03*
X0096794Y0149806D03*
X0095994Y0154606D03*
X0092794Y0166606D03*
X0083194Y0161006D03*
X0087194Y0177806D03*
X0062394Y0177806D03*
X0055194Y0181006D03*
X0044794Y0181806D03*
X0022394Y0161006D03*
X0022394Y0157006D03*
X0033594Y0141806D03*
X0040794Y0132206D03*
X0043994Y0121806D03*
X0037594Y0115406D03*
X0053594Y0115406D03*
X0067994Y0105006D03*
X0073594Y0115406D03*
X0068794Y0126606D03*
X0080794Y0126606D03*
X0074394Y0139406D03*
X0059194Y0143406D03*
X0019194Y0133806D03*
X0027194Y0097006D03*
X0020794Y0095406D03*
X0081594Y0105006D03*
X0129594Y0070606D03*
X0132794Y0061806D03*
X0127194Y0060206D03*
X0143994Y0042606D03*
X0138394Y0041006D03*
X0143194Y0031406D03*
X0142394Y0020206D03*
X0123194Y0028206D03*
X0095994Y0025806D03*
X0092794Y0030606D03*
X0096794Y0053006D03*
X0154394Y0042606D03*
X0177594Y0034606D03*
X0202394Y0039406D03*
X0201594Y0056206D03*
X0207994Y0064206D03*
X0243994Y0057006D03*
X0148794Y0118606D03*
X0131994Y0127406D03*
X0156794Y0140206D03*
X0175194Y0162606D03*
X0179994Y0163406D03*
X0183194Y0166606D03*
X0184794Y0173806D03*
X0162394Y0164206D03*
X0135994Y0169006D03*
X0143194Y0099406D03*
X0227194Y0177806D03*
M02*
