%
M48
M72
T01C0.01300
T02C0.03200
T03C0.04000
T04C0.05512
%
T01
X47994Y42606
X48794Y49006
X44794Y50606
X39994Y55406
X52794Y62606
X42394Y70606
X31994Y71406
X19194Y53806
X19194Y49806
X11194Y51406
X59994Y93006
X71194Y85006
X74394Y80206
X65594Y67406
X75194Y55406
X89594Y40206
X95994Y44206
X103194Y40206
X110394Y40206
X115194Y47406
X123194Y47406
X136794Y50606
X143194Y49006
X147994Y51406
X144794Y54606
X154394Y62606
X154394Y66606
X157594Y73006
X161594Y69806
X169594Y73806
X175994Y79406
X162394Y78606
X151994Y81006
X147994Y77006
X150394Y73806
X140794Y73806
X140794Y81006
X145594Y83406
X135994Y84206
X123194Y82606
X122394Y77806
X120794Y73806
X115194Y76206
X103994Y68206
X94394Y82606
X101594Y85806
X99194Y96206
X101594Y109806
X95994Y114606
X93594Y111406
X95994Y121806
X93594Y127406
X103194Y134606
X106394Y131406
X115994Y125806
X123194Y119406
X123194Y111406
X119194Y109806
X122394Y106606
X135994Y107406
X136794Y113006
X143994Y111406
X147994Y111406
X152794Y108206
X162394Y100206
X162394Y117006
X162394Y127406
X174394Y127406
X177594Y117806
X196794Y117806
X203194Y109806
X199994Y106606
X201594Y101806
X200794Y95406
X212794Y98606
X211194Y106606
X211194Y116206
X203194Y131406
X183994Y143406
X175994Y146606
X162394Y150606
X151994Y153806
X143994Y157006
X142394Y147406
X136794Y141806
X135994Y145806
X122394Y150606
X118394Y150606
X96794Y149806
X95994Y154606
X92794Y166606
X83194Y161006
X87194Y177806
X62394Y177806
X55194Y181006
X44794Y181806
X22394Y161006
X22394Y157006
X33594Y141806
X40794Y132206
X43994Y121806
X37594Y115406
X53594Y115406
X67994Y105006
X73594Y115406
X68794Y126606
X80794Y126606
X74394Y139406
X59194Y143406
X19194Y133806
X27194Y97006
X20794Y95406
X81594Y105006
X129594Y70606
X132794Y61806
X127194Y60206
X143994Y42606
X138394Y41006
X143194Y31406
X142394Y20206
X123194Y28206
X95994Y25806
X92794Y30606
X96794Y53006
X154394Y42606
X177594Y34606
X202394Y39406
X201594Y56206
X207994Y64206
X243994Y57006
X148794Y118606
X131994Y127406
X156794Y140206
X175194Y162606
X179994Y163406
X183194Y166606
X184794Y173806
X162394Y164206
X135994Y169006
X143194Y99406
X227194Y177806
T02
X253994Y172806
X253994Y162806
X253994Y152806
X253994Y142806
X253994Y132806
X253994Y122806
X253994Y112806
X253994Y102806
X253994Y92806
X253994Y82806
X253994Y72806
X253994Y62806
X193994Y62806
X193994Y72806
X193994Y82806
X193994Y92806
X193994Y102806
X193994Y112806
X193994Y122806
X193994Y132806
X193994Y142806
X193994Y152806
X193994Y162806
X193994Y172806
X193994Y182806
X193994Y192806
X253994Y192806
X253994Y182806
X66594Y61206
X46594Y61206
X34194Y60106
X14194Y60106
X29294Y84206
X48294Y84206
T03
X81594Y76406
X91594Y76406
X91594Y66406
X81594Y66406
X81594Y56406
X91594Y56406
X192494Y25806
X203494Y25806
X104994Y143806
X104994Y153806
X104994Y163806
X104994Y173806
X104994Y183806
X104994Y193806
X22994Y194106
X22994Y183106
T04
X11994Y183306
X11994Y194306
X192494Y13306
X203994Y13306
M30
