G75*
%MOIN*%
%OFA0B0*%
%FSLAX25Y25*%
%IPPOS*%
%LPD*%
%AMOC8*
5,1,8,0,0,1.08239X$1,22.5*
%
%ADD10C,0.00500*%
%ADD11R,0.01969X0.07283*%
%ADD12C,0.00400*%
%ADD13C,0.00800*%
%ADD14C,0.00200*%
D10*
X0009968Y0028256D02*
X0012971Y0028256D01*
X0011470Y0028256D02*
X0011470Y0032760D01*
X0012971Y0031259D01*
X0014572Y0032009D02*
X0015323Y0032760D01*
X0016824Y0032760D01*
X0017575Y0032009D01*
X0017575Y0029007D01*
X0016824Y0028256D01*
X0015323Y0028256D01*
X0014572Y0029007D01*
X0019143Y0028256D02*
X0020644Y0028256D01*
X0019894Y0028256D02*
X0019894Y0032760D01*
X0020644Y0032760D02*
X0019143Y0032760D01*
X0107546Y0095471D02*
X0179042Y0095471D01*
X0179042Y0128541D01*
X0107546Y0128541D01*
X0107546Y0095471D01*
X0108878Y0123561D02*
X0108880Y0123680D01*
X0108886Y0123798D01*
X0108896Y0123916D01*
X0108910Y0124034D01*
X0108927Y0124151D01*
X0108949Y0124268D01*
X0108975Y0124384D01*
X0109004Y0124499D01*
X0109037Y0124613D01*
X0109074Y0124725D01*
X0109115Y0124837D01*
X0109160Y0124947D01*
X0109208Y0125055D01*
X0109260Y0125162D01*
X0109315Y0125267D01*
X0109374Y0125370D01*
X0109436Y0125471D01*
X0109501Y0125570D01*
X0109570Y0125667D01*
X0109642Y0125761D01*
X0109717Y0125853D01*
X0109795Y0125942D01*
X0109876Y0126029D01*
X0109960Y0126113D01*
X0110047Y0126194D01*
X0110136Y0126272D01*
X0110228Y0126347D01*
X0110322Y0126419D01*
X0110419Y0126488D01*
X0110518Y0126553D01*
X0110619Y0126615D01*
X0110722Y0126674D01*
X0110827Y0126729D01*
X0110934Y0126781D01*
X0111042Y0126829D01*
X0111152Y0126874D01*
X0111264Y0126915D01*
X0111376Y0126952D01*
X0111490Y0126985D01*
X0111605Y0127014D01*
X0111721Y0127040D01*
X0111838Y0127062D01*
X0111955Y0127079D01*
X0112073Y0127093D01*
X0112191Y0127103D01*
X0112309Y0127109D01*
X0112428Y0127111D01*
X0112547Y0127109D01*
X0112665Y0127103D01*
X0112783Y0127093D01*
X0112901Y0127079D01*
X0113018Y0127062D01*
X0113135Y0127040D01*
X0113251Y0127014D01*
X0113366Y0126985D01*
X0113480Y0126952D01*
X0113592Y0126915D01*
X0113704Y0126874D01*
X0113814Y0126829D01*
X0113922Y0126781D01*
X0114029Y0126729D01*
X0114134Y0126674D01*
X0114237Y0126615D01*
X0114338Y0126553D01*
X0114437Y0126488D01*
X0114534Y0126419D01*
X0114628Y0126347D01*
X0114720Y0126272D01*
X0114809Y0126194D01*
X0114896Y0126113D01*
X0114980Y0126029D01*
X0115061Y0125942D01*
X0115139Y0125853D01*
X0115214Y0125761D01*
X0115286Y0125667D01*
X0115355Y0125570D01*
X0115420Y0125471D01*
X0115482Y0125370D01*
X0115541Y0125267D01*
X0115596Y0125162D01*
X0115648Y0125055D01*
X0115696Y0124947D01*
X0115741Y0124837D01*
X0115782Y0124725D01*
X0115819Y0124613D01*
X0115852Y0124499D01*
X0115881Y0124384D01*
X0115907Y0124268D01*
X0115929Y0124151D01*
X0115946Y0124034D01*
X0115960Y0123916D01*
X0115970Y0123798D01*
X0115976Y0123680D01*
X0115978Y0123561D01*
X0115976Y0123442D01*
X0115970Y0123324D01*
X0115960Y0123206D01*
X0115946Y0123088D01*
X0115929Y0122971D01*
X0115907Y0122854D01*
X0115881Y0122738D01*
X0115852Y0122623D01*
X0115819Y0122509D01*
X0115782Y0122397D01*
X0115741Y0122285D01*
X0115696Y0122175D01*
X0115648Y0122067D01*
X0115596Y0121960D01*
X0115541Y0121855D01*
X0115482Y0121752D01*
X0115420Y0121651D01*
X0115355Y0121552D01*
X0115286Y0121455D01*
X0115214Y0121361D01*
X0115139Y0121269D01*
X0115061Y0121180D01*
X0114980Y0121093D01*
X0114896Y0121009D01*
X0114809Y0120928D01*
X0114720Y0120850D01*
X0114628Y0120775D01*
X0114534Y0120703D01*
X0114437Y0120634D01*
X0114338Y0120569D01*
X0114237Y0120507D01*
X0114134Y0120448D01*
X0114029Y0120393D01*
X0113922Y0120341D01*
X0113814Y0120293D01*
X0113704Y0120248D01*
X0113592Y0120207D01*
X0113480Y0120170D01*
X0113366Y0120137D01*
X0113251Y0120108D01*
X0113135Y0120082D01*
X0113018Y0120060D01*
X0112901Y0120043D01*
X0112783Y0120029D01*
X0112665Y0120019D01*
X0112547Y0120013D01*
X0112428Y0120011D01*
X0112309Y0120013D01*
X0112191Y0120019D01*
X0112073Y0120029D01*
X0111955Y0120043D01*
X0111838Y0120060D01*
X0111721Y0120082D01*
X0111605Y0120108D01*
X0111490Y0120137D01*
X0111376Y0120170D01*
X0111264Y0120207D01*
X0111152Y0120248D01*
X0111042Y0120293D01*
X0110934Y0120341D01*
X0110827Y0120393D01*
X0110722Y0120448D01*
X0110619Y0120507D01*
X0110518Y0120569D01*
X0110419Y0120634D01*
X0110322Y0120703D01*
X0110228Y0120775D01*
X0110136Y0120850D01*
X0110047Y0120928D01*
X0109960Y0121009D01*
X0109876Y0121093D01*
X0109795Y0121180D01*
X0109717Y0121269D01*
X0109642Y0121361D01*
X0109570Y0121455D01*
X0109501Y0121552D01*
X0109436Y0121651D01*
X0109374Y0121752D01*
X0109315Y0121855D01*
X0109260Y0121960D01*
X0109208Y0122067D01*
X0109160Y0122175D01*
X0109115Y0122285D01*
X0109074Y0122397D01*
X0109037Y0122509D01*
X0109004Y0122623D01*
X0108975Y0122738D01*
X0108949Y0122854D01*
X0108927Y0122971D01*
X0108910Y0123088D01*
X0108896Y0123206D01*
X0108886Y0123324D01*
X0108880Y0123442D01*
X0108878Y0123561D01*
D11*
X0110794Y0132163D03*
X0115794Y0132163D03*
X0120794Y0132163D03*
X0125794Y0132163D03*
X0130794Y0132163D03*
X0135794Y0132163D03*
X0140794Y0132163D03*
X0145794Y0132163D03*
X0150794Y0132163D03*
X0155794Y0132163D03*
X0160794Y0132163D03*
X0165794Y0132163D03*
X0170794Y0132163D03*
X0175794Y0132163D03*
X0175794Y0091849D03*
X0170794Y0091849D03*
X0165794Y0091849D03*
X0160794Y0091849D03*
X0155794Y0091849D03*
X0150794Y0091849D03*
X0145794Y0091849D03*
X0140794Y0091849D03*
X0135794Y0091849D03*
X0130794Y0091849D03*
X0125794Y0091849D03*
X0120794Y0091849D03*
X0115794Y0091849D03*
X0110794Y0091849D03*
D12*
X0085298Y0117273D02*
X0084531Y0116506D01*
X0081462Y0116506D01*
X0080694Y0117273D01*
X0080694Y0118808D01*
X0081462Y0119575D01*
X0084531Y0119575D01*
X0085298Y0118808D01*
X0085298Y0117273D01*
X0085298Y0121110D02*
X0080694Y0121110D01*
X0082229Y0121110D02*
X0082229Y0123412D01*
X0082996Y0124179D01*
X0084531Y0124179D01*
X0085298Y0123412D01*
X0085298Y0121110D01*
X0082229Y0122645D02*
X0080694Y0124179D01*
X0079927Y0125714D02*
X0079927Y0128783D01*
X0081462Y0130318D02*
X0080694Y0131085D01*
X0080694Y0132620D01*
X0081462Y0133387D01*
X0082996Y0133387D01*
X0082996Y0131852D01*
X0081462Y0130318D02*
X0084531Y0130318D01*
X0085298Y0131085D01*
X0085298Y0132620D01*
X0084531Y0133387D01*
X0083763Y0134922D02*
X0085298Y0136456D01*
X0083763Y0137991D01*
X0080694Y0137991D01*
X0082996Y0137991D02*
X0082996Y0134922D01*
X0083763Y0134922D02*
X0080694Y0134922D01*
X0077798Y0136456D02*
X0076263Y0137991D01*
X0073194Y0137991D01*
X0075496Y0137991D02*
X0075496Y0134922D01*
X0076263Y0134922D02*
X0073194Y0134922D01*
X0073962Y0133387D02*
X0075496Y0133387D01*
X0075496Y0131852D01*
X0073962Y0130318D02*
X0073194Y0131085D01*
X0073194Y0132620D01*
X0073962Y0133387D01*
X0076263Y0134922D02*
X0077798Y0136456D01*
X0077031Y0133387D02*
X0077798Y0132620D01*
X0077798Y0131085D01*
X0077031Y0130318D01*
X0073962Y0130318D01*
X0072427Y0128783D02*
X0072427Y0125714D01*
X0073194Y0124179D02*
X0074729Y0122645D01*
X0074729Y0123412D02*
X0074729Y0121110D01*
X0073194Y0121110D02*
X0077798Y0121110D01*
X0077798Y0123412D01*
X0077031Y0124179D01*
X0075496Y0124179D01*
X0074729Y0123412D01*
X0073962Y0119575D02*
X0073194Y0118808D01*
X0073194Y0117273D01*
X0073962Y0116506D01*
X0077031Y0116506D01*
X0077798Y0117273D01*
X0077798Y0118808D01*
X0077031Y0119575D01*
X0073962Y0119575D01*
X0077798Y0139526D02*
X0077798Y0142595D01*
X0077798Y0144130D02*
X0073194Y0144130D01*
X0073194Y0147199D01*
X0073194Y0148733D02*
X0073194Y0151803D01*
X0073194Y0153337D02*
X0073962Y0153337D01*
X0073962Y0154105D01*
X0073194Y0154105D01*
X0073194Y0153337D01*
X0075496Y0153337D02*
X0076263Y0153337D01*
X0076263Y0154105D01*
X0075496Y0154105D01*
X0075496Y0153337D01*
X0074729Y0155639D02*
X0074729Y0157941D01*
X0075496Y0158709D01*
X0077031Y0158709D01*
X0077798Y0157941D01*
X0077798Y0155639D01*
X0073194Y0155639D01*
X0074729Y0157174D02*
X0073194Y0158709D01*
X0073194Y0160243D02*
X0073962Y0160243D01*
X0077031Y0163313D01*
X0077798Y0163313D01*
X0077798Y0160243D01*
X0080694Y0158709D02*
X0082229Y0157174D01*
X0081462Y0158709D02*
X0080694Y0157941D01*
X0080694Y0156407D01*
X0081462Y0155639D01*
X0084531Y0155639D01*
X0085298Y0156407D01*
X0085298Y0157941D01*
X0084531Y0158709D01*
X0081462Y0158709D01*
X0082996Y0160243D02*
X0082996Y0163313D01*
X0080694Y0162545D02*
X0085298Y0162545D01*
X0082996Y0160243D01*
X0082996Y0154105D02*
X0082996Y0153337D01*
X0083763Y0153337D01*
X0083763Y0154105D01*
X0082996Y0154105D01*
X0081462Y0154105D02*
X0080694Y0154105D01*
X0080694Y0153337D01*
X0081462Y0153337D01*
X0081462Y0154105D01*
X0080694Y0151803D02*
X0080694Y0148733D01*
X0080694Y0147199D02*
X0080694Y0144130D01*
X0085298Y0144130D01*
X0085298Y0147199D01*
X0083763Y0148733D02*
X0085298Y0150268D01*
X0080694Y0150268D01*
X0077798Y0150268D02*
X0076263Y0148733D01*
X0077798Y0147199D02*
X0077798Y0144130D01*
X0075496Y0144130D02*
X0075496Y0145664D01*
X0073194Y0141060D02*
X0077798Y0141060D01*
X0080694Y0141060D02*
X0085298Y0141060D01*
X0085298Y0139526D02*
X0085298Y0142595D01*
X0082996Y0144130D02*
X0082996Y0145664D01*
X0077798Y0150268D02*
X0073194Y0150268D01*
X0053298Y0150273D02*
X0052531Y0149506D01*
X0049462Y0149506D01*
X0048694Y0150273D01*
X0048694Y0151808D01*
X0049462Y0152575D01*
X0052531Y0152575D01*
X0053298Y0151808D01*
X0053298Y0150273D01*
X0053298Y0154110D02*
X0053298Y0156412D01*
X0052531Y0157179D01*
X0050996Y0157179D01*
X0050229Y0156412D01*
X0050229Y0154110D01*
X0050229Y0155645D02*
X0048694Y0157179D01*
X0047927Y0158714D02*
X0047927Y0161783D01*
X0049462Y0163318D02*
X0048694Y0164085D01*
X0048694Y0165620D01*
X0049462Y0166387D01*
X0050996Y0166387D01*
X0050996Y0164852D01*
X0049462Y0163318D02*
X0052531Y0163318D01*
X0053298Y0164085D01*
X0053298Y0165620D01*
X0052531Y0166387D01*
X0051763Y0167922D02*
X0053298Y0169456D01*
X0051763Y0170991D01*
X0048694Y0170991D01*
X0050996Y0170991D02*
X0050996Y0167922D01*
X0051763Y0167922D02*
X0048694Y0167922D01*
X0053298Y0172526D02*
X0053298Y0175595D01*
X0053298Y0177130D02*
X0048694Y0177130D01*
X0048694Y0180199D01*
X0048694Y0181733D02*
X0048694Y0184803D01*
X0048694Y0186337D02*
X0049462Y0186337D01*
X0049462Y0187105D01*
X0048694Y0187105D01*
X0048694Y0186337D01*
X0050996Y0186337D02*
X0050996Y0187105D01*
X0051763Y0187105D01*
X0051763Y0186337D01*
X0050996Y0186337D01*
X0049462Y0188639D02*
X0048694Y0189407D01*
X0048694Y0190941D01*
X0049462Y0191709D01*
X0052531Y0191709D01*
X0053298Y0190941D01*
X0053298Y0189407D01*
X0052531Y0188639D01*
X0049462Y0188639D01*
X0050229Y0190174D02*
X0048694Y0191709D01*
X0048694Y0193243D02*
X0048694Y0196313D01*
X0048694Y0194778D02*
X0053298Y0194778D01*
X0051763Y0193243D01*
X0053298Y0183268D02*
X0048694Y0183268D01*
X0051763Y0181733D02*
X0053298Y0183268D01*
X0053298Y0180199D02*
X0053298Y0177130D01*
X0050996Y0177130D02*
X0050996Y0178664D01*
X0048694Y0174060D02*
X0053298Y0174060D01*
X0053298Y0154110D02*
X0048694Y0154110D01*
X0040798Y0141971D02*
X0040798Y0138902D01*
X0038496Y0138902D01*
X0039263Y0140437D01*
X0039263Y0141204D01*
X0038496Y0141971D01*
X0036962Y0141971D01*
X0036194Y0141204D01*
X0036194Y0139669D01*
X0036962Y0138902D01*
X0036194Y0137367D02*
X0037729Y0135833D01*
X0037729Y0136600D02*
X0037729Y0134298D01*
X0036194Y0134298D02*
X0040798Y0134298D01*
X0040798Y0136600D01*
X0040031Y0137367D01*
X0038496Y0137367D01*
X0037729Y0136600D01*
X0038496Y0132763D02*
X0038496Y0131996D01*
X0039263Y0131996D01*
X0039263Y0132763D01*
X0038496Y0132763D01*
X0036962Y0132763D02*
X0036962Y0131996D01*
X0036194Y0131996D01*
X0036194Y0132763D01*
X0036962Y0132763D01*
X0036194Y0130461D02*
X0036194Y0127392D01*
X0036194Y0125858D02*
X0036194Y0122788D01*
X0040798Y0122788D01*
X0040798Y0125858D01*
X0039263Y0127392D02*
X0040798Y0128927D01*
X0036194Y0128927D01*
X0038496Y0124323D02*
X0038496Y0122788D01*
X0040798Y0121254D02*
X0040798Y0118184D01*
X0040798Y0119719D02*
X0036194Y0119719D01*
X0036194Y0116650D02*
X0039263Y0116650D01*
X0040798Y0115115D01*
X0039263Y0113580D01*
X0036194Y0113580D01*
X0036962Y0112046D02*
X0038496Y0112046D01*
X0038496Y0110511D01*
X0040031Y0108976D02*
X0036962Y0108976D01*
X0036194Y0109744D01*
X0036194Y0111278D01*
X0036962Y0112046D01*
X0038496Y0113580D02*
X0038496Y0116650D01*
X0040031Y0112046D02*
X0040798Y0111278D01*
X0040798Y0109744D01*
X0040031Y0108976D01*
X0035427Y0107442D02*
X0035427Y0104373D01*
X0036194Y0102838D02*
X0037729Y0101303D01*
X0037729Y0102071D02*
X0037729Y0099769D01*
X0036194Y0099769D02*
X0040798Y0099769D01*
X0040798Y0102071D01*
X0040031Y0102838D01*
X0038496Y0102838D01*
X0037729Y0102071D01*
X0036962Y0098234D02*
X0040031Y0098234D01*
X0040798Y0097467D01*
X0040798Y0095932D01*
X0040031Y0095165D01*
X0036962Y0095165D01*
X0036194Y0095932D01*
X0036194Y0097467D01*
X0036962Y0098234D01*
X0022798Y0097467D02*
X0022031Y0098234D01*
X0018962Y0098234D01*
X0018194Y0097467D01*
X0018194Y0095932D01*
X0018962Y0095165D01*
X0022031Y0095165D01*
X0022798Y0095932D01*
X0022798Y0097467D01*
X0022798Y0099769D02*
X0022798Y0102071D01*
X0022031Y0102838D01*
X0020496Y0102838D01*
X0019729Y0102071D01*
X0019729Y0099769D01*
X0019729Y0101303D02*
X0018194Y0102838D01*
X0017427Y0104373D02*
X0017427Y0107442D01*
X0018962Y0108976D02*
X0018194Y0109744D01*
X0018194Y0111278D01*
X0018962Y0112046D01*
X0020496Y0112046D01*
X0020496Y0110511D01*
X0022031Y0108976D02*
X0018962Y0108976D01*
X0022031Y0108976D02*
X0022798Y0109744D01*
X0022798Y0111278D01*
X0022031Y0112046D01*
X0021263Y0113580D02*
X0022798Y0115115D01*
X0021263Y0116650D01*
X0018194Y0116650D01*
X0020496Y0116650D02*
X0020496Y0113580D01*
X0021263Y0113580D02*
X0018194Y0113580D01*
X0022798Y0118184D02*
X0022798Y0121254D01*
X0022798Y0122788D02*
X0018194Y0122788D01*
X0018194Y0125858D01*
X0018194Y0127392D02*
X0018194Y0130461D01*
X0018194Y0128927D02*
X0022798Y0128927D01*
X0021263Y0127392D01*
X0022798Y0125858D02*
X0022798Y0122788D01*
X0020496Y0122788D02*
X0020496Y0124323D01*
X0018194Y0119719D02*
X0022798Y0119719D01*
X0021263Y0131996D02*
X0020496Y0131996D01*
X0020496Y0132763D01*
X0021263Y0132763D01*
X0021263Y0131996D01*
X0018962Y0131996D02*
X0018962Y0132763D01*
X0018194Y0132763D01*
X0018194Y0131996D01*
X0018962Y0131996D01*
X0019729Y0134298D02*
X0019729Y0136600D01*
X0020496Y0137367D01*
X0022031Y0137367D01*
X0022798Y0136600D01*
X0022798Y0134298D01*
X0018194Y0134298D01*
X0019729Y0135833D02*
X0018194Y0137367D01*
X0018194Y0138902D02*
X0018194Y0141971D01*
X0018194Y0140437D02*
X0022798Y0140437D01*
X0021263Y0138902D01*
X0022962Y0164806D02*
X0022194Y0165573D01*
X0022194Y0166341D01*
X0022962Y0167108D01*
X0026798Y0167108D01*
X0026798Y0166341D02*
X0026798Y0167875D01*
X0026798Y0169410D02*
X0026798Y0171712D01*
X0026031Y0172479D01*
X0024496Y0172479D01*
X0023729Y0171712D01*
X0023729Y0169410D01*
X0022194Y0169410D02*
X0026798Y0169410D01*
X0026031Y0174014D02*
X0026798Y0174781D01*
X0026798Y0176316D01*
X0026031Y0177083D01*
X0025263Y0177083D01*
X0024496Y0176316D01*
X0023729Y0177083D01*
X0022962Y0177083D01*
X0022194Y0176316D01*
X0022194Y0174781D01*
X0022962Y0174014D01*
X0024496Y0175548D02*
X0024496Y0176316D01*
X0022798Y0099769D02*
X0018194Y0099769D01*
X0143608Y0099551D02*
X0143608Y0101086D01*
X0143608Y0100318D02*
X0148212Y0100318D01*
X0148212Y0099551D02*
X0148212Y0101086D01*
X0147445Y0102620D02*
X0144376Y0102620D01*
X0143608Y0103387D01*
X0143608Y0104922D01*
X0144376Y0105689D01*
X0143608Y0107224D02*
X0146678Y0110293D01*
X0147445Y0110293D01*
X0148212Y0109526D01*
X0148212Y0107991D01*
X0147445Y0107224D01*
X0147445Y0105689D02*
X0148212Y0104922D01*
X0148212Y0103387D01*
X0147445Y0102620D01*
X0143608Y0107224D02*
X0143608Y0110293D01*
D13*
X0060094Y0127006D02*
X0054094Y0127006D01*
X0046594Y0125506D02*
X0046594Y0121506D01*
X0054094Y0120006D02*
X0059594Y0120006D01*
X0026894Y0178606D02*
X0022994Y0178606D01*
X0019094Y0178606D01*
X0017994Y0179706D01*
X0022994Y0179606D02*
X0022994Y0178606D01*
X0026894Y0178606D02*
X0027994Y0179706D01*
X0022994Y0187106D02*
X0022994Y0190106D01*
X0022994Y0197606D02*
X0022994Y0198606D01*
X0026894Y0198606D01*
X0027994Y0197506D01*
X0022994Y0198606D02*
X0019094Y0198606D01*
X0017994Y0197506D01*
D14*
X0051470Y0118908D02*
X0051470Y0116706D01*
X0052204Y0116706D02*
X0050736Y0116706D01*
X0052204Y0118174D02*
X0051470Y0118908D01*
X0052946Y0118541D02*
X0052946Y0117073D01*
X0053313Y0116706D01*
X0054414Y0116706D01*
X0054414Y0118908D01*
X0053313Y0118908D01*
X0052946Y0118541D01*
M02*
